HIERARCHY
ROOT Hips
{
  OFFSET 1.44925e-005 102.336 -0.101585
  CHANNELS 6 Xposition Yposition Zposition Zrotation Xrotation Yrotation
  JOINT LeftUpLeg
  {
    OFFSET 8.9458 -8.66707 0.101652
    CHANNELS 3 Zrotation Xrotation Yrotation
    JOINT LeftLeg
    {
      OFFSET 0 -44.4227 1.3727
      CHANNELS 3 Zrotation Xrotation Yrotation
      JOINT LeftFoot
      {
        OFFSET -0.253549 -42.0924 -1.46059
        CHANNELS 3 Zrotation Xrotation Yrotation
        JOINT LeftToes
        {
          OFFSET -0.04 -4.41509 8.4991
          CHANNELS 3 Zrotation Xrotation Yrotation
          End Site
          {
            OFFSET 0.08 -0.047448 9.77979
          }
        }
      }
    }
  }
  JOINT Spine
  {
    OFFSET 0 11.8905 0
    CHANNELS 3 Zrotation Xrotation Yrotation
    JOINT Spine1
    {
      OFFSET 0 25.6574 0.127663
      CHANNELS 3 Zrotation Xrotation Yrotation
      JOINT RightShoulder
      {
        OFFSET -8.99 -0.362252 -0.22
        CHANNELS 3 Zrotation Xrotation Yrotation
        JOINT RightArm
        {
          OFFSET -10.2827 -0.00338 0.322123
          CHANNELS 3 Zrotation Xrotation Yrotation
          JOINT RightForeArm
          {
            OFFSET -26.364 0.099144 -1.42434
            CHANNELS 3 Zrotation Xrotation Yrotation
            JOINT RightHand
            {
              OFFSET -22.0324 0.085362 1.02216
              CHANNELS 3 Zrotation Xrotation Yrotation
              End Site
              {
                OFFSET -13.3284 -0.6 1.50291
              }
            }
          }
        }
      }
      JOINT LeftShoulder1
      {
        OFFSET 8.99 -0.362252 -0.22
        CHANNELS 3 Zrotation Xrotation Yrotation
        JOINT LeftArm
        {
          OFFSET 10.2827 -0.00337999 0.322123
          CHANNELS 3 Zrotation Xrotation Yrotation
          JOINT LeftForeArm
          {
            OFFSET 26.2597 0.099144 -1.42434
            CHANNELS 3 Zrotation Xrotation Yrotation
            JOINT LeftHand
            {
              OFFSET 22.0902 0.085362 1.02216
              CHANNELS 3 Zrotation Xrotation Yrotation
              End Site
              {
                OFFSET 13.419 -0.6 1.50291
              }
            }
          }
        }
      }
      JOINT Head
      {
        OFFSET 0 8.73416 0.011341
        CHANNELS 3 Zrotation Xrotation Yrotation
        End Site
        {
          OFFSET -0.29 12.7742 2.51395
        }
      }
    }
  }
  JOINT RightUpLeg
  {
    OFFSET -8.9458 -8.66707 0.101652
    CHANNELS 3 Zrotation Xrotation Yrotation
    JOINT RightLeg
    {
      OFFSET 0 -44.4227 1.3727
      CHANNELS 3 Zrotation Xrotation Yrotation
      JOINT RightFoot
      {
        OFFSET 0.253549 -42.0924 -1.46059
        CHANNELS 3 Zrotation Xrotation Yrotation
        JOINT RightToes
        {
          OFFSET 0.04 -4.41509 8.4991
          CHANNELS 3 Zrotation Xrotation Yrotation
          End Site
          {
            OFFSET -0.08 -0.137448 9.77979
          }
        }
      }
    }
  }
}
MOTION
Frames:	7
Frame Time:	0.0333333
109.104 102.559 5.79596 -7.1534 -0.593656 -91.7319 -1.35592 2.38237 2.24756 -0.24889 9.86921 19.1227 -1.66876 -10.452 -0.0013807 -1.34668e-009 8.75229e-006 -1.47044e-008 1.11768 10 -1.11187 -0.145566 -1.81467 -0.963821 36.9575 1.80054 0.163729 42.2152 -19.614 8.23367 10.3493 41.0659 4.39517 -7.06075 9.68183 -1.29542 -44.934 3.58983 -3.45002 -26.5129 -12.7919 3.25815 -3.84985 36.4265 -15.1853 5.82328 9.61819 -0.917488 0.482084 -2.83191 -2.07066 -1.65829 1.94851 -5.02786 0.300182 11.9114 -12.5506 3.47035 -11.3578 -0.0821403 0.0462048 0.000530889 0.662642 
109.144 102.554 5.78845 -7.18404 -0.598367 -91.7553 -1.35628 2.38236 2.25564 -0.257868 9.89675 19.1398 -1.75394 -10.4482 -0.00138069 -1.34668e-009 8.75229e-006 -1.47044e-008 1.09845 10.0029 -1.11258 -0.131621 -1.76993 -0.965092 36.9786 1.80054 0.162074 42.2105 -19.5123 8.24002 10.3618 41.0835 4.40562 -6.95886 9.68221 -1.18798 -44.9335 3.58983 -3.45002 -26.5327 -12.8435 3.23988 -3.80773 36.5733 -15.1968 5.82328 9.61819 -0.917488 0.410985 -2.90617 -2.03905 -1.64728 1.91656 -5.0019 0.270672 11.9843 -12.568 3.45985 -11.3578 -0.0821403 0.0462048 0.000530889 0.662642 
109.219 102.547 5.77636 -7.25725 -0.608662 -91.7763 -1.35861 2.38031 2.25598 -0.253696 9.9691 19.1465 -1.91543 -10.4312 -0.00138061 -1.34668e-009 8.75229e-006 -1.47044e-008 1.07654 10.0453 -1.11819 -0.125182 -1.71136 -0.97354 37.0212 1.80054 0.156534 42.2341 -19.4953 8.23978 10.328 41.2398 4.44181 -6.62357 9.68253 -1.09051 -44.9018 3.58982 -3.45104 -26.5999 -12.9595 3.22915 -3.71754 36.7906 -15.2397 5.82328 9.61819 -0.917488 0.310167 -3.00073 -2.00182 -1.64404 1.8919 -4.98508 0.246554 12.0894 -12.5875 3.44064 -11.3567 -0.08214 0.0462048 0.000530889 0.662642 
109.295 102.541 5.76475 -7.33116 -0.619377 -91.7854 -1.36856 2.36878 2.24718 -0.234772 10.0592 19.1463 -2.02841 -10.4087 -0.00151627 -1.34668e-009 8.75229e-006 -1.47044e-008 1.05226 10.0841 -1.13036 -0.104208 -1.64437 -0.992317 37.0068 1.80054 0.15284 42.3277 -19.5604 8.20831 10.2687 41.4606 4.4764 -6.44808 9.68129 -1.0875 -44.8778 3.59154 -3.45692 -26.6628 -13.105 3.25434 -3.63509 36.9302 -15.2874 5.82328 9.61819 -0.917488 0.26407 -3.04396 -1.96802 -1.65338 1.89143 -4.99357 0.250929 12.1497 -12.6021 3.41865 -11.3518 -0.0821385 0.0462048 0.000530889 0.662642 
109.359 102.538 5.75561 -7.37984 -0.628763 -91.7968 -1.3849 2.35303 2.23044 -0.212687 10.1114 19.1734 -2.04748 -10.383 -0.00209735 -1.34668e-009 8.75229e-006 -1.47044e-008 1.02167 10.088 -1.13329 -0.0564223 -1.56435 -1.00599 36.9453 1.80054 0.149867 42.4255 -19.5454 8.12706 10.2357 41.5106 4.51276 -6.64131 9.67517 -1.13579 -44.9089 3.5988 -3.46729 -26.6646 -13.1162 3.3054 -3.59498 36.8995 -15.3355 5.82328 9.61819 -0.917488 0.27769 -3.04496 -1.96396 -1.66468 1.89088 -5.00973 0.262854 12.1705 -12.6161 3.39871 -11.3492 -0.0821378 0.0462048 0.000530889 0.662642 
109.421 102.533 5.74957 -7.42259 -0.639852 -91.8222 -1.41073 2.36268 2.20182 -0.189281 10.1061 19.235 -2.04494 -10.3539 -0.00272235 -1.34668e-009 8.75229e-006 -1.47044e-008 1.01174 10.0982 -1.117 -0.035629 -1.49966 -0.991957 36.9586 1.80054 0.148007 42.4 -19.4562 8.00863 10.223 41.3166 4.57854 -6.80126 9.67446 -1.18407 -44.9557 3.6051 -3.47282 -26.6439 -12.9112 3.34926 -3.57502 36.7506 -15.4039 5.82328 9.61819 -0.917488 0.30674 -3.02577 -2.01609 -1.67699 1.87603 -5.0221 0.260803 12.2101 -12.6022 3.39559 -11.354 -0.0821392 0.0462048 0.000530889 0.662642 
109.486 102.529 5.74451 -7.47941 -0.65178 -91.861 -1.43611 2.39148 2.17755 -0.170094 10.0945 19.2975 -2.0728 -10.3293 -0.003337 -1.34668e-009 8.75229e-006 -1.47044e-008 1.0273 10.1449 -1.08583 -0.0594402 -1.46471 -0.953147 37.0625 1.80054 0.147655 42.2602 -19.4363 7.9046 10.2144 41.0672 4.63628 -6.57865 9.68448 -1.22643 -44.9695 3.60498 -3.47365 -26.668 -12.6627 3.37782 -3.53256 36.6357 -15.4925 5.82328 9.61819 -0.917488 0.320999 -2.97615 -2.08338 -1.6918 1.86065 -5.02838 0.248661 12.2782 -12.5388 3.41664 -11.3667 -0.0821428 0.0462048 0.000530889 0.662642 
